<?xml version="1.0" encoding="UTF-8"?>
<!DOCTYPE svg PUBLIC "-//W3C//DTD SVG 1.1//EN" "http://www.w3.org/Graphics/SVG/1.1/DTD/svg11.dtd">
<svg xmlns="http://www.w3.org/2000/svg" version="1.1" width="512px" height="512px" style="shape-rendering:geometricPrecision; text-rendering:geometricPrecision; image-rendering:optimizeQuality; fill-rule:evenodd; clip-rule:evenodd" xmlns:xlink="http://www.w3.org/1999/xlink">
<g><path style="opacity:0.971" fill="#507c5c" d="M 243.5,-0.5 C 251.5,-0.5 259.5,-0.5 267.5,-0.5C 277.737,1.63985 287.403,5.47318 296.5,11C 338.5,37.6667 380.5,64.3333 422.5,91C 447.275,110.4 456.442,135.566 450,166.5C 448.551,171.399 446.551,176.065 444,180.5C 409.5,219.667 375,258.833 340.5,298C 374,335.5 407.5,373 441,410.5C 457.28,434.635 457.613,458.968 442,483.5C 430.649,497.249 416.482,506.582 399.5,511.5C 392.167,511.5 384.833,511.5 377.5,511.5C 366.831,508.832 357.165,503.999 348.5,497C 317.286,462.623 286.286,428.123 255.5,393.5C 224.38,428.457 193.047,463.29 161.5,498C 152.996,504.42 143.663,508.92 133.5,511.5C 126.167,511.5 118.833,511.5 111.5,511.5C 89.9557,505.799 73.7891,493.132 63,473.5C 53.8721,451.186 56.2054,430.186 70,410.5C 103.5,373 137,335.5 170.5,298C 136,258.833 101.5,219.667 67,180.5C 50.729,144.417 58.229,114.251 89.5,90C 131.336,63.9166 173.002,37.5833 214.5,11C 223.597,5.47318 233.263,1.63985 243.5,-0.5 Z M 384.5,110.5 C 402.877,110.368 415.043,119.035 421,136.5C 424.931,147.045 423.931,157.045 418,166.5C 326.204,269.965 234.037,373.131 141.5,476C 126.783,485.385 112.783,484.385 99.5,473C 84.6531,459.392 82.8198,444.225 94,427.5C 156.333,358.167 218.667,288.833 281,219.5C 287.333,211.833 293.667,204.167 300,196.5C 302.411,185.089 297.911,178.422 286.5,176.5C 283.302,176.622 280.302,177.455 277.5,179C 270.5,186.667 263.5,194.333 256.5,202C 255.833,202.667 255.167,202.667 254.5,202C 237.167,182.667 219.833,163.333 202.5,144C 214.5,136.667 226.5,129.333 238.5,122C 250.167,117.333 261.833,117.333 273.5,122C 291.001,132.918 308.667,143.585 326.5,154C 333.449,155.572 339.282,153.739 344,148.5C 353.382,137.573 362.882,126.74 372.5,116C 376.475,113.854 380.475,112.02 384.5,110.5 Z"/></g>
<g><path style="opacity:1" fill="#ceef9d" d="M 248.5,27.5 C 259.977,26.5359 270.644,29.0359 280.5,35C 308.167,52.6667 335.833,70.3333 363.5,88C 359.5,90.6667 355.5,93.3333 351.5,96C 343.597,104.564 335.764,113.064 328,121.5C 314.106,112.618 299.939,104.118 285.5,96C 261.679,86.0931 238.679,87.7598 216.5,101C 200.915,110.708 185.415,120.542 170,130.5C 165.759,136.592 165.426,142.925 169,149.5C 191.686,174.685 214.186,200.018 236.5,225.5C 221.138,242.526 205.805,259.526 190.5,276.5C 157.843,240.341 125.343,204.008 93,167.5C 82.3225,146.199 86.4892,128.366 105.5,114C 145.5,88.6667 185.5,63.3333 225.5,38C 232.76,33.3659 240.427,29.8659 248.5,27.5 Z"/></g>
<g><path style="opacity:1" fill="#ceef9d" d="M 319.5,319.5 C 323.724,323.22 327.891,327.22 332,331.5C 361.667,365.167 391.333,398.833 421,432.5C 428.448,452.486 422.948,467.986 404.5,479C 392.429,485.466 380.762,484.8 369.5,477C 337.463,441.965 305.796,406.631 274.5,371C 289.709,353.962 304.709,336.795 319.5,319.5 Z"/></g>
</svg>
